<?xml version="1.0" encoding="utf-8"?>
<svg viewBox="0 0 128 73.6" width="128" height="73.6" xmlns="http://www.w3.org/2000/svg">
  <g transform="matrix(0.11082599312067032, 0, 0, 0.11082599312067032, 29.339170455932617, 5.730044841766357)">
    <path d="M 332.459 1.201 C 332.196 1.889 332.098 29.215 332.241 61.927 L 332.5 121.403 L 335 122.114 C 347.441 125.653 356.689 128.935 363 132.051 C 394.037 147.378 416.634 177.092 424.142 212.451 C 424.892 215.985 425.389 225.027 425.349 234.451 C 425.267 254.114 423.159 263.44 414.477 282.558 C 401.718 310.653 370.49 336.186 340.5 343.043 C 337.75 343.671 334.825 344.52 334 344.927 C 332.691 345.574 332.5 353.375 332.5 406.06 L 332.5 466.451 L 412 466.951 L 491.5 467.451 L 492.074 483.951 C 492.732 502.88 493.953 508.417 500.238 520.948 C 506.119 532.672 520.037 546.767 531 552.099 C 540.704 556.818 546.364 558.677 555.265 560.068 C 562.712 561.232 577.23 560.713 582.523 559.095 C 584.161 558.594 587.525 557.587 590 556.858 C 605.815 552.197 622.341 538.12 631.426 521.572 C 637.367 510.751 639.172 502.808 639.861 484.451 L 640.5 467.451 L 720.25 467.195 L 800 466.939 L 800 289.81 C 800 166.603 799.668 110.668 798.909 106.066 C 797.001 94.495 793.538 81.952 789.766 72.951 C 779.998 49.639 757.413 25.373 734.5 13.569 C 726.689 9.546 717.929 5.951 715.935 5.951 C 714.935 5.951 713.871 5.551 713.568 5.061 C 713.266 4.572 711.552 3.926 709.759 3.624 C 707.967 3.323 703.125 2.397 699 1.567 C 692.483 0.254 668.002 0.049 512.219 0.004 C 369.676 -0.038 332.839 0.207 332.459 1.201" stroke="none" fill-rule="evenodd" style="fill: rgb(238, 176, 67);"/>
    <path d="M -65 0.566 C -117.654 5.708 -161.308 45.198 -172.684 97.978 C -174.401 105.944 -174.5 116.276 -174.5 287.404 L -174.5 468.404 L 58.395 468.656 C 229.101 468.841 291.65 468.609 292.639 467.789 C 293.746 466.87 294.034 452.564 294.244 388.037 L 294.5 309.404 L 310.5 308.828 C 327.844 308.203 333.775 306.97 345 301.656 C 361.115 294.026 374.793 279.521 381.641 262.799 C 385.71 252.863 386.929 246.318 386.929 234.404 C 386.929 212.872 380.382 196.756 365.456 181.549 C 359.04 175.011 351.741 170.021 342.394 165.783 C 332.796 161.431 328.825 160.703 311 160.029 L 294.5 159.404 L 293.985 79.904 C 293.702 36.179 293.364 0.292 293.235 0.154 C 292.874 -0.23 -61.017 0.177 -65 0.566" stroke="none" fill-rule="evenodd" style="fill: rgb(116, 78, 213);"/>
  </g>
</svg>